<svg xmlns="http://www.w3.org/2000/svg" viewBox="0 0 137 95"><defs><style>.cls-1{fill:#303;}.cls-2{fill:none;stroke:#303;stroke-linecap:round;stroke-miterlimit:10;stroke-width:14px;}</style></defs><g id="Calque_2" data-name="Calque 2"><g id="Calque_1-2" data-name="Calque 1"><path class="cls-1" d="M47.5,0A47.5,47.5,0,1,0,95,47.5,47.54,47.54,0,0,0,47.5,0ZM68.8,42.1,47.7,63.3a7.44,7.44,0,0,1-5.2,2.2,7,7,0,0,1-5.2-2.2L26.2,52.2A7.42,7.42,0,0,1,36.7,41.7l5.8,5.8,15.9-16a7.42,7.42,0,0,1,10.5,0A7.54,7.54,0,0,1,68.8,42.1Z"/><path class="cls-2" d="M77.82,25.37l34.44-.52c5.57,1,9.79,5.17,10.43,9.91.85,6.24-4.54,13.06-12.52,13.57L130,80.15"/></g></g></svg>