<?xml version="1.0" encoding="utf-8"?>
<!-- Generator: Adobe Illustrator 25.0.1, SVG Export Plug-In . SVG Version: 6.00 Build 0)  -->
<svg version="1.1" xmlns="http://www.w3.org/2000/svg" xmlns:xlink="http://www.w3.org/1999/xlink" x="0px" y="0px"
	 viewBox="0 0 292.7 203.2" style="enable-background:new 0 0 292.7 203.2;" xml:space="preserve">
<style type="text/css">
	.st0{fill:#330033;}
	.st1{fill:none;stroke:#330033;stroke-width:25;stroke-linecap:round;stroke-miterlimit:10;}
</style>
<g id="Calque_2">
</g>
<g id="Calque_1">
	<path class="st0" d="M111.5,18.8c-45.8,0-83,37.2-83,83s37.2,83,83,83s83-37.2,83-83S157.3,18.8,111.5,18.8z M148.7,92.4l-36.9,37
		c-2.4,2.4-5.8,3.8-9.1,3.8c-3.3,0-6.6-1.2-9.1-3.8L74.3,110c-5.1-5.1-5.1-13.3,0-18.3s13.3-5.1,18.3,0l10.1,10.1l27.8-28
		c5.1-5.1,13.3-5.1,18.3,0C154,78.9,153.8,87.5,148.7,92.4z"/>
	<path class="st1" d="M164.5,63.1c20.1-0.3,40.1-0.6,60.2-0.9c9.7,1.8,17.1,9,18.2,17.3c1.5,10.9-7.9,22.8-21.9,23.7
		c11.5,18.5,23.1,37.1,34.6,55.6"/>
</g>
</svg>
